<?xml version="1.0" encoding="UTF-8"?>
<svg version="1.1" xmlns="http://www.w3.org/2000/svg" width="1370" height="241">
<path d="M0 0 C2.60094302 0.47898555 3.26154794 1.35805494 4.97265625 3.36328125 C5.88284008 5.04777171 6.72128402 6.77173405 7.51171875 8.515625 C8.00067627 9.58312988 8.48963379 10.65063477 8.9934082 11.75048828 C9.78751099 13.5078833 9.78751099 13.5078833 10.59765625 15.30078125 C11.76772122 17.86080395 12.94278128 20.41852902 14.1171875 22.9765625 C14.42635605 23.65168884 14.7355246 24.32681519 15.05406189 25.0223999 C18.73118834 33.04242598 22.50928959 41.01440603 26.28515625 48.98828125 C27.73864645 52.06102525 29.19156566 55.13403915 30.64453125 58.20703125 C31.18568825 59.35125801 31.18568825 59.35125801 31.73777771 60.51860046 C35.51365802 68.50374908 39.27558334 76.49544473 43.03515625 84.48828125 C43.36311188 85.1854425 43.6910675 85.88260376 44.02896118 86.60089111 C45.68237456 90.11569566 47.33562641 93.63057615 48.98876953 97.14550781 C50.98154889 101.38241913 52.9750432 105.61899378 54.96875 109.85546875 C55.46513977 110.91025925 55.46513977 110.91025925 55.97155762 111.98635864 C57.30029437 114.80978268 58.62905924 117.63319348 59.95782471 120.456604 C63.4250194 127.82388098 66.89192833 135.19129187 70.35751343 142.55932617 C71.84881688 145.72987468 73.34029489 148.90034106 74.83178711 152.07080078 C75.54639302 153.58996527 76.26091232 155.1091705 76.9753418 156.62841797 C77.96251228 158.72764055 78.94997433 160.82672574 79.9375 162.92578125 C80.23148178 163.5511377 80.52546356 164.17649414 80.82835388 164.82080078 C81.85898867 167.01093584 82.8901238 169.19821636 83.97265625 171.36328125 C84.16015625 174.86328125 84.16015625 174.86328125 83.97265625 178.36328125 C81.97265625 180.36328125 81.97265625 180.36328125 79.80859375 180.55859375 C78.99648438 180.53539062 78.184375 180.5121875 77.34765625 180.48828125 C76.53039062 180.47023437 75.713125 180.4521875 74.87109375 180.43359375 C74.24460937 180.41039062 73.618125 180.3871875 72.97265625 180.36328125 C71.80311808 178.05219917 70.63708726 175.73943615 69.47265625 173.42578125 C69.158125 172.80509766 68.84359375 172.18441406 68.51953125 171.54492188 C64.50574858 163.5559506 60.78409577 155.46259024 56.97265625 147.36328125 C17.70265625 147.03328125 -21.56734375 146.70328125 -62.02734375 146.36328125 C-62.68734375 148.34328125 -63.34734375 150.32328125 -64.02734375 152.36328125 C-65.93233159 156.82307583 -67.99027811 161.21245076 -70.02734375 165.61328125 C-70.57390625 166.80953125 -71.12046875 168.00578125 -71.68359375 169.23828125 C-72.20953125 170.3778125 -72.73546875 171.51734375 -73.27734375 172.69140625 C-73.99664063 174.2522998 -73.99664063 174.2522998 -74.73046875 175.84472656 C-76.02734375 178.36328125 -76.02734375 178.36328125 -78.02734375 180.36328125 C-79.90234375 180.62890625 -79.90234375 180.62890625 -82.02734375 180.61328125 C-82.72859375 180.6184375 -83.42984375 180.62359375 -84.15234375 180.62890625 C-86.02734375 180.36328125 -86.02734375 180.36328125 -88.02734375 178.36328125 C-88.6032889 173.32740637 -87.26525049 170.03765626 -85.08984375 165.53515625 C-84.62276001 164.55533783 -84.62276001 164.55533783 -84.14624023 163.5557251 C-83.11717525 161.40299243 -82.07221098 159.25838232 -81.02734375 157.11328125 C-80.2969489 155.59173479 -79.56780323 154.06958812 -78.83984375 152.546875 C-77.32644755 149.38371827 -75.80770664 146.22321316 -74.28515625 143.06445312 C-71.15017655 136.55020089 -68.08082809 130.00532383 -65.01123047 123.46008301 C-63.35308232 119.92633477 -61.68994267 116.39493702 -60.02734375 112.86328125 C-59.36065357 111.44662565 -58.6939869 110.02995898 -58.02734375 108.61328125 C-38.02734375 66.11328125 -38.02734375 66.11328125 -37.02755737 63.98876953 C-36.36014336 62.57049185 -35.69276468 61.15219755 -35.02542114 59.73388672 C-33.37047644 56.2167321 -31.71494134 52.69985793 -30.05810547 49.18359375 C-26.91739273 42.516465 -23.7832722 35.846426 -20.66827393 29.16723633 C-19.18874924 25.99572195 -17.70607551 22.82568454 -16.22314453 19.65576172 C-15.51387954 18.13729425 -14.80617579 16.61809649 -14.10009766 15.09814453 C-13.12400212 12.99718401 -12.14266459 10.89874872 -11.16015625 8.80078125 C-10.87133575 8.1754248 -10.58251526 7.55006836 -10.28494263 6.90576172 C-7.63082556 1.26408731 -6.36241628 0.15460077 0 0 Z M-4.02734375 20.36328125 C-12.22111914 37.65619464 -20.35658549 54.97098648 -28.23623657 72.40960693 C-32.14124538 81.05076307 -36.08685148 89.67144743 -40.0859375 98.26953125 C-40.51703323 99.19680527 -40.94812897 100.12407928 -41.39228821 101.07945251 C-43.51420216 105.64163084 -45.64003242 110.20193771 -47.77075195 114.76000977 C-48.54907615 116.43111263 -49.32731897 118.10225341 -50.10546875 119.7734375 C-50.45794174 120.52415527 -50.81041473 121.27487305 -51.17356873 122.04833984 C-51.67208092 123.12088013 -51.67208092 123.12088013 -52.18066406 124.21508789 C-52.46629211 124.82614883 -52.75192017 125.43720978 -53.04620361 126.06678772 C-54.49191698 129.45067883 -55.73528552 132.91779264 -57.02734375 136.36328125 C-21.05734375 136.36328125 14.91265625 136.36328125 51.97265625 136.36328125 C49.51157234 130.21057149 47.0630896 124.2215531 44.20703125 118.26953125 C43.8566832 117.53274139 43.50633514 116.79595154 43.14537048 116.03683472 C42.39596658 114.46164511 41.64519883 112.88710374 40.89315796 111.31317139 C39.28620992 107.94978786 37.68625664 104.5830914 36.08573914 101.21664429 C35.26082429 99.48179685 34.43555592 97.74711746 33.60993958 96.01260376 C29.60501465 87.59800901 25.6272315 79.17077548 21.66015625 70.73828125 C21.33427521 70.04593384 21.00839417 69.35358643 20.67263794 68.64025879 C15.42253659 57.48381384 10.21530997 46.30779156 5.04370117 35.11474609 C4.54974854 34.04691895 4.0557959 32.9790918 3.546875 31.87890625 C3.11979248 30.95368164 2.69270996 30.02845703 2.25268555 29.07519531 C0.87091531 26.1477294 -0.56968909 23.2536098 -2.02734375 20.36328125 C-2.68734375 20.36328125 -3.34734375 20.36328125 -4.02734375 20.36328125 Z " fill="#801F10" transform="translate(804.02734375,7.63671875)"/>
<path d="M0 0 C3.5625 0.3125 3.5625 0.3125 5.25813293 1.34602356 C7.27911683 4.39287848 7.00167246 7.55113814 6.99487305 11.08862305 C7.0050647 11.87910034 7.01525635 12.66957764 7.02575684 13.48400879 C7.05595733 16.09748354 7.06516338 18.71059221 7.07421875 21.32421875 C7.09106024 23.13598353 7.10920976 24.94773659 7.12861633 26.75947571 C7.17618017 31.52861875 7.20594816 36.29771427 7.23205566 41.0670166 C7.26182904 45.9334451 7.3083704 50.79970975 7.35351562 55.66601562 C7.43962132 65.21475816 7.50693423 74.76353435 7.5625 84.3125 C8.10496872 83.62275589 8.64743744 82.93301178 9.2063446 82.22236633 C9.92159805 81.31923203 10.6368515 80.41609772 11.3737793 79.4855957 C12.08124802 78.58960159 12.78871674 77.69360748 13.5176239 76.77046204 C22.88707342 65.50828765 37.30973459 59.30054668 51.5625 57.3125 C69.66721925 55.70300238 88.37422353 59.21903098 102.85546875 70.859375 C112.41275131 79.0293809 119.08902755 88.56348993 123.5625 100.3125 C124.04396484 101.55966797 124.04396484 101.55966797 124.53515625 102.83203125 C130.13592721 120.62424782 127.62440051 141.72944338 119.3125 158.125 C109.87225263 174.48007825 96.47912785 185.52351031 78.33984375 190.98828125 C72.53467389 192.4954928 67.03656791 192.76005953 61.0625 192.6875 C59.62970703 192.70490234 59.62970703 192.70490234 58.16796875 192.72265625 C48.31306562 192.68264988 39.40466043 190.22785578 30.625 185.8125 C29.61530151 185.30734863 29.61530151 185.30734863 28.58520508 184.79199219 C20.25616267 180.39323208 12.99392548 174.03559005 7.5625 166.3125 C7.5531543 166.89741211 7.54380859 167.48232422 7.53417969 168.08496094 C7.48036721 170.7449858 7.39674551 173.40327222 7.3125 176.0625 C7.29123047 177.44308594 7.29123047 177.44308594 7.26953125 178.8515625 C7.02228134 185.67566001 7.02228134 185.67566001 4.67578125 188.92578125 C2.03170158 190.6608058 0.66629724 190.86959181 -2.4375 190.3125 C-4.06645489 189.24582005 -4.06645489 189.24582005 -5.4375 187.3125 C-5.72995967 184.7738618 -5.83810154 182.48074245 -5.8117218 179.94187927 C-5.81569621 179.18526994 -5.81967061 178.42866061 -5.82376546 177.64912373 C-5.83341288 175.10630646 -5.82155591 172.56404216 -5.80981445 170.02124023 C-5.8122416 168.20140373 -5.81596016 166.38156855 -5.82087708 164.56173706 C-5.83029966 159.61352021 -5.82084951 154.66550069 -5.80754495 149.71729922 C-5.79624941 144.54656354 -5.80033644 139.37583785 -5.80229187 134.20509338 C-5.80317537 125.52186855 -5.79208213 116.8387217 -5.77368164 108.15551758 C-5.75250652 98.10517988 -5.74900522 88.05495643 -5.7552436 78.00460094 C-5.76093066 68.34942196 -5.75529981 58.69428335 -5.74407005 49.03911018 C-5.73941601 44.92390257 -5.73855368 40.80871959 -5.7406559 36.69351006 C-5.74253427 31.8516596 -5.7344698 27.00992606 -5.7185955 22.16810226 C-5.71433932 20.3870689 -5.713511 18.6060237 -5.71628571 16.82498741 C-5.71948898 14.40190737 -5.71047305 11.97918076 -5.69819641 9.55613708 C-5.70197573 8.84418369 -5.70575506 8.1322303 -5.70964891 7.39870256 C-5.66412754 2.35217852 -5.44961111 0.49541919 0 0 Z M17.5625 86.3125 C6.20354013 101.34345045 3.92630661 116.98783623 5.5625 135.3125 C7.6714901 149.9604546 15.55681855 163.25399291 27.1640625 172.3515625 C40.36386121 181.29090745 55.28056215 183.87767841 70.9375 181.75 C85.72270737 178.67774912 97.83580018 169.3851035 106.03125 156.91796875 C112.05420099 146.66973326 114.96036956 136.8651494 114.875 125 C114.86936035 124.17040771 114.8637207 123.34081543 114.85791016 122.48608398 C114.56136461 107.39602599 109.33656594 94.44028165 98.84765625 83.49609375 C85.92886912 71.15147493 72.21394019 67.66789072 54.78125 68 C40.33221446 68.62369938 27.24305522 75.69005292 17.5625 86.3125 Z " fill="#7F1F10" transform="translate(913.4375,-0.3125)"/>
<path d="M0 0 C6.51807238 4.97272807 11.72940776 10.21698169 15.94921875 17.25 C16.27921875 9.33 16.60921875 1.41 16.94921875 -6.75 C20.90921875 -6.75 24.86921875 -6.75 28.94921875 -6.75 C28.94921875 35.49 28.94921875 77.73 28.94921875 121.25 C24.98921875 121.25 21.02921875 121.25 16.94921875 121.25 C16.61921875 113.66 16.28921875 106.07 15.94921875 98.25 C14.62921875 99.755625 13.30921875 101.26125 11.94921875 102.8125 C0.76976567 115.11856464 -12.57385257 124.27893715 -29.67138672 125.42578125 C-50.18199944 126.38023888 -68.38234028 123.84748606 -84.42578125 109.8125 C-85.98447113 108.30911847 -87.52761918 106.78936592 -89.05078125 105.25 C-89.6746875 104.65960938 -90.29859375 104.06921875 -90.94140625 103.4609375 C-94.99767275 99.31331364 -97.66784978 94.61918657 -100.30078125 89.5 C-100.79505615 88.55338501 -100.79505615 88.55338501 -101.29931641 87.58764648 C-106.09898907 77.79803281 -107.59458991 67.75229653 -107.48828125 56.9375 C-107.48070801 55.84808105 -107.47313477 54.75866211 -107.46533203 53.63623047 C-107.1062716 35.98460998 -101.15816366 21.21769901 -89.05078125 8.25 C-82.15426843 1.68290458 -74.84878805 -3.12275158 -66.05078125 -6.75 C-64.56964844 -7.37068359 -64.56964844 -7.37068359 -63.05859375 -8.00390625 C-42.4276902 -15.2423773 -18.09001674 -11.98435237 0 0 Z M-82.2734375 18.78515625 C-93.29437628 33.10207672 -96.69019719 48.93351623 -94.65625 66.6953125 C-91.94598212 82.04766861 -84.61862269 95.82040062 -72.05078125 105.25 C-58.3533805 114.50887019 -42.28365652 117.06103217 -26.23828125 114.1875 C-11.26568844 110.67419423 0.87139579 102.82886444 9.3828125 89.953125 C18.20496403 74.7288635 20.4681932 57.49911423 16.38671875 40.4375 C14.25144106 33.35499444 11.15149764 27.3199584 6.94921875 21.25 C6.4490625 20.52296875 5.94890625 19.7959375 5.43359375 19.046875 C-3.04610572 8.16887669 -16.46794142 2.26743996 -29.61328125 -0.5 C-49.70346952 -1.9611046 -68.61458714 3.20590514 -82.2734375 18.78515625 Z " fill="#7F1F10" transform="translate(395.05078125,66.75)"/>
<path d="M0 0 C3.63 0 7.26 0 11 0 C11.33 7.92 11.66 15.84 12 24 C14.31 21.03 16.62 18.06 19 15 C29.16903422 4.6556376 42.24076605 -0.13334492 56.59814453 -0.38037109 C66.03980603 -0.36124786 74.21248314 0.15621684 83 4 C84.39025391 4.58394531 84.39025391 4.58394531 85.80859375 5.1796875 C100.13629156 12.04885326 109.55773821 24.91377232 115.33984375 39.34375 C122.20593419 59.08681433 120.48791593 80.31903408 111.9375 99.1875 C104.57530922 113.13774563 92.77991369 123.51712879 78 129 C63.38832449 133.40351865 46.98850066 132.39058523 33.30859375 125.6796875 C24.29307582 120.64200878 17.98656507 114.3811911 12 106 C11.67 130.42 11.34 154.84 11 180 C7.37 180 3.74 180 0 180 C0 120.6 0 61.2 0 0 Z M23.06640625 25.46484375 C10.79681348 40.51770898 8.38085102 57.19732242 10 76 C11.9056006 90.47818384 18.90436897 102.63505665 30 112 C39.92207828 119.59867416 51.70977985 121.84652027 64 121 C72.78308929 119.75432147 79.82214688 117.21689325 87 112 C87.70898438 111.48566406 88.41796875 110.97132813 89.1484375 110.44140625 C100.00225998 101.77082393 105.69444951 88.41833115 108 75 C109.80322589 56.69123327 105.96665426 40.71522667 94.66796875 25.953125 C85.09900748 15.3614197 73.38573404 10.72882344 59.4375 9.75 C45.24600163 10.02502904 32.74617864 15.09242217 23.06640625 25.46484375 Z " fill="#7F1F10" transform="translate(448,60)"/>
<path d="M0 0 C2.9375 0.8125 2.9375 0.8125 4.9375 3.8125 C5.13064843 6.70405596 5.20725589 9.50027134 5.19287109 12.39208984 C5.19649155 13.26897461 5.200112 14.14585938 5.20384216 15.04931641 C5.21074097 16.95632257 5.21324069 18.8633485 5.21189499 20.77036667 C5.21092943 23.79875727 5.22387949 26.82679317 5.24087524 29.85513306 C5.28711212 38.46670706 5.31171405 47.07824761 5.31835938 55.68994141 C5.32340514 60.95851297 5.34781923 66.22671938 5.38368607 71.49516678 C5.39342278 73.49398215 5.39584985 75.49284818 5.39051437 77.49168015 C5.19627241 97.3861994 5.19627241 97.3861994 13.9375 114.8125 C20.85676038 121.57450446 29.03242328 123.90837477 38.5625 124.0625 C51.08554083 123.90921921 63.06011924 119.10315916 72.3125 110.5625 C83.26173514 98.771016 84.37485066 87.324799 84.34819031 71.92004585 C84.34367662 69.08277863 84.35780772 66.24612329 84.37658691 63.40892029 C84.41939783 56.3732909 84.43065273 49.33767784 84.44281006 42.30194092 C84.45432379 36.3329593 84.47781181 30.36426189 84.51750183 24.39539909 C84.53108936 21.59946204 84.52690083 18.80390702 84.52209473 16.00794983 C84.53142994 14.3016002 84.54159739 12.59525484 84.55273438 10.88891602 C84.54658615 10.11124878 84.54043793 9.33358154 84.53410339 8.53234863 C84.59391319 3.33139335 84.59391319 3.33139335 86.2701416 0.7999115 C87.9375 -0.1875 87.9375 -0.1875 91 -0.0625 C93.9375 0.8125 93.9375 0.8125 95.9375 3.8125 C96.19197559 6.07629776 96.19197559 6.07629776 96.19819641 8.77984619 C96.20528122 9.80564789 96.21236603 10.83144958 96.21966553 11.88833618 C96.21718811 13.01347626 96.21471069 14.13861633 96.2121582 15.29785156 C96.21726913 16.483638 96.22238007 17.66942444 96.22764587 18.8911438 C96.23918246 22.14811524 96.24161133 25.40492923 96.23908257 28.66191578 C96.23801178 31.38955227 96.24290023 34.11716541 96.247688 36.8447969 C96.25879466 43.29433547 96.25921741 49.74381585 96.25317383 56.19335938 C96.2471644 62.81368101 96.25936457 69.43378848 96.2807439 76.05407357 C96.2984739 81.75709506 96.30434254 87.46004917 96.30110615 93.16309714 C96.29930744 96.56010733 96.30178386 99.9569656 96.31582069 103.3539505 C96.39611166 127.87564619 95.27162964 148.99824202 77.9140625 168.03125 C65.45526995 180.07320563 49.33480718 184.32549925 32.43652344 184.16210938 C19.36740688 183.79784775 8.05538122 180.7219177 -3.0625 173.8125 C-5.0625 170.8125 -5.0625 170.8125 -5 167.75 C-4.0625 164.8125 -4.0625 164.8125 -1.9453125 163.4296875 C2.08676303 162.56645182 4.53618819 164.1305918 8 166 C21.82824765 172.89560986 36.43761352 175.56154167 51.5234375 170.7109375 C52.71839844 170.26621094 52.71839844 170.26621094 53.9375 169.8125 C54.63101562 169.55726563 55.32453125 169.30203125 56.0390625 169.0390625 C66.28775399 164.58843552 74.05951401 155.65928554 78.9375 145.8125 C83.40556336 134.27454369 84.1054962 124.0575565 83.9375 111.8125 C83.63199219 112.2971875 83.32648438 112.781875 83.01171875 113.28125 C75.50441699 124.27786103 62.82562359 131.84432608 49.9375 134.8125 C36.07617201 136.08358939 21.75209373 136.01652806 10.0625 127.625 C1.03744634 119.82536647 -4.18777836 110.62936574 -6.0625 98.8125 C-6.21700906 95.66599776 -6.21965823 92.5221685 -6.22363281 89.37231445 C-6.22859772 88.42870056 -6.23356262 87.48508667 -6.23867798 86.51287842 C-6.25325051 83.40050523 -6.26009084 80.2881829 -6.265625 77.17578125 C-6.27137729 75.0129547 -6.27713501 72.85012816 -6.28289795 70.68730164 C-6.2933917 66.15896365 -6.29924607 61.63064335 -6.30273438 57.10229492 C-6.30823793 51.28789176 -6.33231233 45.47372056 -6.36070633 39.65939045 C-6.37928054 35.19599204 -6.38453535 30.73265034 -6.38607025 26.26921654 C-6.38910545 24.12451079 -6.39716295 21.97980625 -6.41025543 19.83513832 C-6.42721864 16.84474273 -6.42546047 13.85492547 -6.41894531 10.86450195 C-6.4281601 9.97252609 -6.43737488 9.08055023 -6.4468689 8.1615448 C-6.42999268 5.70185852 -6.42999268 5.70185852 -6.0625 1.8125 C-3.0625 -0.1875 -3.0625 -0.1875 0 0 Z " fill="#7F1F10" transform="translate(1274.0625,57.1875)"/>
<path d="M0 0 C14.94784128 -0.62206439 29.99385951 3.72255838 41.31640625 13.6171875 C42.91608782 15.141884 44.5010521 16.68226861 46.06640625 18.2421875 C46.64390625 18.79648438 47.22140625 19.35078125 47.81640625 19.921875 C57.75486896 30.32620315 61.34046218 46.02780411 61.46484375 60 C60.97222075 62.77221178 60.25031855 63.50912268 58.06640625 65.2421875 C56.08867359 65.61133099 56.08867359 65.61133099 53.79536438 65.60295105 C52.92458252 65.60707504 52.05380066 65.61119904 51.15663147 65.615448 C49.72812111 65.59926926 49.72812111 65.59926926 48.27075195 65.58276367 C46.76316818 65.58342079 46.76316818 65.58342079 45.22512817 65.58409119 C41.89728486 65.58199825 38.56994299 65.558643 35.2421875 65.53515625 C32.93719254 65.5295621 30.63219401 65.52529115 28.32719421 65.52229309 C22.25587137 65.51083011 16.18476329 65.48135024 10.11352539 65.44818115 C3.92011419 65.41751168 -2.27333165 65.40379443 -8.46679688 65.38867188 C-20.62249028 65.35648209 -32.77802417 65.30526805 -44.93359375 65.2421875 C-44.48855959 68.42976974 -44.03054174 71.61536033 -43.5703125 74.80078125 C-43.44555542 75.69551147 -43.32079834 76.5902417 -43.19226074 77.51208496 C-41.04264041 92.24896409 -34.8936597 105.18527961 -23.109375 114.75 C-11.00177071 123.05359935 4.68924157 126.003813 19.09375 123.7734375 C33.08599527 120.74808717 41.76307876 113.3372776 51.15625 102.92578125 C53.06640625 101.2421875 53.06640625 101.2421875 56.19140625 101.4296875 C59.06640625 102.2421875 59.06640625 102.2421875 61.06640625 103.2421875 C60.3908686 110.93205773 55.56956417 115.24714863 50.06640625 120.2421875 C33.94184113 133.72329811 18.38250141 136.48994219 -1.93359375 135.2421875 C-17.65422704 133.32848564 -31.90573751 124.93531333 -41.9296875 112.83203125 C-51.81292814 99.42057997 -55.51349941 84.92161911 -55.37109375 68.4296875 C-55.36352051 67.19863281 -55.35594727 65.96757813 -55.34814453 64.69921875 C-54.98414448 44.59153705 -47.92151173 27.75407664 -33.43359375 13.6171875 C-23.96474487 5.73895553 -12.15855818 1.00376912 0 0 Z M-31.93359375 28.2421875 C-37.66057745 35.68613673 -42.93359375 44.64361227 -42.93359375 54.2421875 C-12.24359375 54.2421875 18.44640625 54.2421875 50.06640625 54.2421875 C48.45981146 39.7828344 43.79495016 30.58882947 32.6484375 21.20703125 C25.06738784 15.53028341 16.56398378 11.9589858 7.06640625 11.2421875 C5.27203125 11.0875 5.27203125 11.0875 3.44140625 10.9296875 C-9.99615754 11.13842635 -22.98474868 18.6389479 -31.93359375 28.2421875 Z " fill="#7F1F10" transform="translate(638.93359375,56.7578125)"/>
<path d="M0 0 C2.46079921 2.01372214 4.63038632 4.25388698 6.8125 6.5625 C7.40998047 7.17802734 8.00746094 7.79355469 8.62304688 8.42773438 C10.0912621 9.94293249 11.54689553 11.47030438 13 13 C10.30788926 16.27418873 7.70370571 19.37441425 4.53027344 22.19555664 C-3.95180116 29.84351511 -8.02214261 38.22210921 -12.4375 48.625 C-13.12199106 50.18593193 -13.80883094 51.74583603 -14.49804688 53.3046875 C-16.08745069 56.91193685 -17.6509897 60.52954881 -19.20428467 64.15246582 C-20.76823967 67.78373973 -22.38545644 71.39102028 -24 75 C-29 74 -29 74 -31.30078125 73.34375 C-34.72196334 72.90805677 -36.78991476 73.72143454 -40 74.9375 C-45.50876991 77.01031521 -48.74245768 77.8760217 -54.33203125 75.70703125 C-63.47612956 70.729604 -63.47612956 70.729604 -64.984375 65.75 C-65.1320625 59.25175002 -64.27261645 55.93781423 -60 51 C-59.87625 50.175 -59.7525 49.35 -59.625 48.5 C-58.64548802 44.58195208 -56.24308534 43.31648953 -53 41 C-52.34 41 -51.68 41 -51 41 C-51.30035156 40.39671875 -51.60070313 39.7934375 -51.91015625 39.171875 C-52.48056641 37.97304687 -52.48056641 37.97304687 -53.0625 36.75 C-53.44535156 35.96109375 -53.82820313 35.1721875 -54.22265625 34.359375 C-55.12352412 31.62508257 -54.87837625 30.68724658 -54 28 C-46.54088534 15.47676688 -38.2484481 10.19398687 -24.55273438 5.83203125 C-22.03830607 5.01248538 -19.57759727 4.1051043 -17.109375 3.15625 C-15.59409146 2.58243082 -14.07848204 2.00947124 -12.5625 1.4375 C-11.5257312 1.04099243 -11.5257312 1.04099243 -10.46801758 0.63647461 C-6.58138401 -0.75440395 -3.85516469 -1.66975286 0 0 Z " fill="#F78F2F" transform="translate(71,1)"/>
<path d="M0 0 C0.99 0 1.98 0 3 0 C3 12.21 3 24.42 3 37 C7.455 36.505 7.455 36.505 12 36 C13.57256681 35.89258556 15.146675 35.80270633 16.72192383 35.74707031 C17.52918411 35.71744202 18.3364444 35.68781372 19.16816711 35.6572876 C20.00599228 35.63116394 20.84381744 35.60504028 21.70703125 35.578125 C22.59484787 35.55022888 23.48266449 35.52233276 24.39738464 35.49359131 C26.25696228 35.4376303 28.11661038 35.38396687 29.97631836 35.33251953 C31.87627107 35.27723985 33.77603327 35.21499828 35.67553711 35.14599609 C38.43580131 35.04579554 41.19598785 34.96588396 43.95703125 34.890625 C44.80497757 34.85640442 45.65292389 34.82218384 46.52656555 34.78692627 C50.06478242 34.71084381 52.35614377 34.6662725 55.5378418 36.31542969 C57 38 57 38 57.4375 41.0625 C57.293125 42.031875 57.14875 43.00125 57 44 C53.74365521 46.17089653 52.75356718 46.26291012 48.9777832 46.31884766 C47.95695145 46.33871735 46.93611969 46.35858704 45.88435364 46.37905884 C44.23423531 46.39638565 44.23423531 46.39638565 42.55078125 46.4140625 C41.4230278 46.43342865 40.29527435 46.4527948 39.13334656 46.4727478 C35.52647497 46.53259307 31.91957156 46.57894922 28.3125 46.625 C25.8691266 46.66317518 23.42576672 46.70222664 20.98242188 46.7421875 C14.98840116 46.8382987 8.99429921 46.92333178 3 47 C3.0844447 59.26567166 3.17934439 71.53121387 3.28752708 83.79670048 C3.33743555 89.4922906 3.3837662 95.18786266 3.421875 100.88354492 C3.45879645 106.38198093 3.50517526 111.88026385 3.55806351 117.37856865 C3.57657097 119.47444404 3.59169234 121.57035221 3.60334396 123.66627693 C3.62026875 126.60588321 3.64931909 129.54514166 3.68115234 132.48461914 C3.68331253 133.34777237 3.68547272 134.2109256 3.68769836 135.10023499 C3.77095969 141.13380788 3.99141579 146.72895106 8.15234375 151.43359375 C11.86187329 153.47408942 14.36122867 153.30030781 18.5625 153.0625 C25.43409493 152.68793338 25.43409493 152.68793338 28.4296875 154.33984375 C30 156 30 156 30.5625 158.5 C30 161 30 161 28.01953125 162.6328125 C23.96067112 164.47058875 20.52702831 164.44005461 16.125 164.375 C15.34769531 164.38660156 14.57039063 164.39820313 13.76953125 164.41015625 C7.528064 164.37868667 2.80309005 163.30272061 -2.14453125 159.23828125 C-2.69496094 158.60277344 -3.24539063 157.96726563 -3.8125 157.3125 C-4.37582031 156.68988281 -4.93914062 156.06726563 -5.51953125 155.42578125 C-9.30076888 149.23013859 -9.28791714 142.2584033 -9.23046875 135.22265625 C-9.23037308 134.27812592 -9.2302774 133.33359558 -9.23017883 132.36044312 C-9.22644912 129.26100148 -9.20745785 126.16187637 -9.1875 123.0625 C-9.18061029 120.90177526 -9.17410575 118.74104927 -9.16796875 116.58032227 C-9.07531519 93.38210715 -8.56390928 70.1907693 -8 47 C-17.57 47 -27.14 47 -37 47 C-35.97490165 40.8494099 -34.63279818 38.930192 -30.5 34.8125 C-29.39591013 33.66779691 -28.29437313 32.52062641 -27.1953125 31.37109375 C-26.65036133 30.80374512 -26.10541016 30.23639648 -25.54394531 29.65185547 C-23.36562994 27.32129225 -21.36811796 24.8646115 -19.375 22.375 C-15.50827841 17.55917402 -11.4212781 12.99610793 -7.23046875 8.4609375 C-5.41787264 6.46105037 -3.72311765 4.43689375 -2.0625 2.3125 C-1.381875 1.549375 -0.70125 0.78625 0 0 Z " fill="#801F10" transform="translate(1193,24)"/>
<path d="M0 0 C14.73793726 2.85625495 29.39911729 6.01510112 44.04296875 9.31884766 C47.68075829 10.13754865 51.32080601 10.94569014 54.9609375 11.75390625 C57.2787908 12.27539777 59.59650474 12.79750914 61.9140625 13.3203125 C63.54343246 13.67973434 63.54343246 13.67973434 65.20571899 14.04641724 C66.20211395 14.27360443 67.19850891 14.50079163 68.22509766 14.73486328 C69.54025864 15.02987228 69.54025864 15.02987228 70.88198853 15.33084106 C73 16 73 16 75 18 C74.65000946 18.51872177 74.30001892 19.03744354 73.93942261 19.57188416 C70.27246963 25.00678855 66.60586392 30.4419271 62.93945312 35.87719727 C61.57398098 37.90134501 60.20842249 39.9254345 58.84277344 41.94946289 C56.8715134 44.87110049 54.90057159 47.79295254 52.9296875 50.71484375 C52.32631561 51.60896469 51.72294373 52.50308563 51.10128784 53.42430115 C47.38293278 58.93767409 43.68267953 64.46273252 40 70 C37.30468544 67.41410114 35.61289638 64.83158865 33.76953125 61.56640625 C33.13893799 60.45563721 32.50834473 59.34486816 31.85864258 58.20043945 C31.1765321 56.98782838 30.49448619 55.77518098 29.8125 54.5625 C29.10556851 53.31375926 28.39812243 52.06530971 27.69018555 50.81713867 C26.21078319 48.20796332 24.73363973 45.59752714 23.2578125 42.98632812 C21.03782726 39.06224268 18.80264899 35.14697744 16.5625 31.234375 C16.02456062 30.29470131 16.02456062 30.29470131 15.47575378 29.33604431 C14.42147659 27.49478224 13.3669982 25.65363551 12.3125 23.8125 C9.868728 19.54522256 7.43163969 15.27420408 5 11 C4.225354 9.65107666 4.225354 9.65107666 3.43505859 8.27490234 C2.97566895 7.46617676 2.5162793 6.65745117 2.04296875 5.82421875 C1.64489014 5.12772217 1.24681152 4.43122559 0.83666992 3.71362305 C0 2 0 2 0 0 Z " fill="#D56726" transform="translate(74,37)"/>
<path d="M0 0 C3.0625 0.3125 3.0625 0.3125 4.72967625 1.37695408 C6.73141962 4.28391474 6.47940309 7.18727548 6.45018005 10.59373474 C6.45556559 11.34076583 6.46095113 12.08779693 6.46649987 12.85746533 C6.48084077 15.36795228 6.47366083 17.87791651 6.46655273 20.38842773 C6.47225312 22.18531724 6.47921609 23.98220312 6.48735046 25.77908325 C6.50533392 30.66543395 6.50410375 35.55160558 6.49840808 40.43797946 C6.49532364 44.51370452 6.50140038 48.58939482 6.50744683 52.66511494 C6.52150754 62.27848153 6.51991798 71.8917593 6.50854492 81.50512695 C6.49706236 91.43052643 6.5111382 101.35565576 6.5379414 111.28101963 C6.56007628 119.79574123 6.56674076 128.31037789 6.56086498 136.82512623 C6.55748887 141.91362382 6.55995375 147.00194821 6.57711601 152.09042168 C6.59254784 156.87491526 6.58867159 161.65900774 6.56981087 166.44348526 C6.5661145 168.20110686 6.56926384 169.95875794 6.57969666 171.71635246 C6.59283727 174.1127955 6.58142212 176.50789704 6.56370544 178.90428162 C6.57331045 179.60262743 6.58291546 180.30097324 6.59281152 181.02048105 C6.54202131 184.35106703 6.2346686 186.07994191 4.23039341 188.7872324 C2.0625 190.3125 2.0625 190.3125 -1.125 190.125 C-3.9375 189.3125 -3.9375 189.3125 -4.9375 188.3125 C-5.03959261 185.91381369 -5.07637739 183.54376813 -5.07121277 181.14442444 C-5.0746111 180.00594839 -5.0746111 180.00594839 -5.07807809 178.84447283 C-5.08444686 176.28179812 -5.0835869 173.71917592 -5.08276367 171.15649414 C-5.08575337 169.32710196 -5.08915545 167.49771041 -5.09294128 165.6683197 C-5.10180466 160.68492913 -5.10412037 155.7015557 -5.10475707 150.71815801 C-5.10570419 146.56531098 -5.1093802 142.41246799 -5.11292917 138.25962251 C-5.12108257 128.46612974 -5.12351259 118.67264617 -5.12280273 108.87915039 C-5.12220166 98.75956379 -5.13275727 88.64003045 -5.1485464 78.52045733 C-5.16159948 69.84701442 -5.16698758 61.17358897 -5.16634732 52.50013632 C-5.16609168 47.3133507 -5.16897911 42.12661238 -5.17952538 36.9398365 C-5.18916895 32.06355792 -5.18931142 27.18737222 -5.18200874 22.31109047 C-5.18095823 20.51715205 -5.18335322 18.72320797 -5.1893692 16.92927933 C-5.19702656 14.48859483 -5.19248631 12.04823612 -5.18473816 9.6075592 C-5.18988172 8.89035062 -5.19502529 8.17314204 -5.20032471 7.43419987 C-5.16746077 2.78003994 -5.12632008 0.5453532 0 0 Z " fill="#801F10" transform="translate(1100.9375,-0.3125)"/>
<path d="M0 0 C6.57738942 0.69171052 12.72521314 2.52171731 19.05859375 4.37890625 C20.20288345 4.71043198 21.34717316 5.0419577 22.52613831 5.38352966 C26.16456181 6.43875964 29.80103788 7.50053285 33.4375 8.5625 C35.91068148 9.28103214 38.38398745 9.99913593 40.85742188 10.71679688 C46.90639894 12.47290475 52.95379232 14.23438231 59 16 C57.42916749 19.14166503 54.83166949 19.38612643 51.59448242 20.59448242 C50.92420517 20.84687683 50.25392792 21.09927124 49.56333923 21.35931396 C47.3299039 22.19827672 45.09278995 23.02693001 42.85546875 23.85546875 C41.29034301 24.44062679 39.72543021 25.02635466 38.16072083 25.61262512 C34.86256725 26.8467433 31.56272378 28.07618894 28.26147461 29.30200195 C24.0892771 30.85125438 19.92001531 32.40821084 15.75184441 33.96825981 C-0.77164057 40.1516774 -17.29943421 46.30732007 -34 52 C-32.71811947 48.53689855 -31.22748521 45.60341208 -29.15844727 42.54858398 C-28.5876796 41.70098007 -28.01691193 40.85337616 -27.42884827 39.98008728 C-26.8142424 39.07786942 -26.19963654 38.17565155 -25.56640625 37.24609375 C-24.93266586 36.30822525 -24.29892548 35.37035675 -23.64598083 34.40406799 C-21.62254921 31.41220922 -19.592495 28.42490825 -17.5625 25.4375 C-16.19945985 23.42280332 -14.83682501 21.40783238 -13.47460938 19.39257812 C-10.97570227 15.70082089 -8.47679809 12.00906976 -5.97094727 8.32202148 C-5.46845963 7.58209457 -4.96597198 6.84216766 -4.44825745 6.07981873 C-3.0111552 4.01601981 -1.52130486 2.00230813 0 0 Z " fill="#96381F" transform="translate(152,55)"/>
<path d="M0 0 C0.99 0.33 1.98 0.66 3 1 C3.81632996 2.85986328 3.81632996 2.85986328 4.44213867 5.3203125 C4.6821611 6.23796387 4.92218353 7.15561523 5.16947937 8.10107422 C5.41648087 9.09896973 5.66348236 10.09686523 5.91796875 11.125 C6.18007645 12.14223145 6.44218414 13.15946289 6.7122345 14.20751953 C7.5493485 17.46874195 8.3684152 20.73420798 9.1875 24 C9.75080779 26.20341812 10.31524639 28.40654749 10.88085938 30.609375 C11.90937258 34.63112016 12.93447499 38.65364403 13.94604492 42.6796875 C14.15017502 43.49163574 14.35430511 44.30358398 14.56462097 45.14013672 C15 47 15 47 15 48 C-10.02286471 48.11918269 -34.9937924 47.97151623 -60 47 C-56.33780187 43.20749894 -52.5024947 39.83835976 -48.375 36.5625 C-47.7267627 36.0459082 -47.07852539 35.52931641 -46.41064453 34.99707031 C-40.54812749 30.36300888 -34.54951784 25.92347885 -28.50732422 21.52734375 C-24.02487633 18.25883567 -19.60044019 14.93238176 -15.2265625 11.51953125 C-13.79401123 10.40626465 -13.79401123 10.40626465 -12.33251953 9.27050781 C-10.47008422 7.8187008 -8.61406245 6.35862174 -6.76513672 4.88964844 C-5.9248291 4.23641602 -5.08452148 3.58318359 -4.21875 2.91015625 C-3.47560547 2.32371338 -2.73246094 1.73727051 -1.96679688 1.13305664 C-1.31775391 0.75914795 -0.66871094 0.38523926 0 0 Z " fill="#7B1D16" transform="translate(212,75)"/>
<path d="M0 0 C0.99 0 1.98 0 3 0 C3.40202637 0.72888428 3.80405273 1.45776855 4.21826172 2.20874023 C6.10142916 5.6196642 7.98762158 9.02890517 9.875 12.4375 C10.38355026 13.35680298 10.38355026 13.35680298 10.90237427 14.29467773 C15.52188504 22.63896434 20.20719611 30.93448276 25.20458984 39.06030273 C28 43.68264869 28 43.68264869 28 47 C19.84570312 50.26171875 11.69140625 53.5234375 3.53710938 56.78515625 C2.65552155 57.1379364 1.77393372 57.49071655 0.8656311 57.85418701 C-0.89716892 58.55901478 -2.66037143 59.2628368 -4.42398071 59.96563721 C-8.48780961 61.58635334 -12.54493979 63.21936169 -16.58544922 64.89746094 C-17.28246445 65.18438812 -17.97947968 65.47131531 -18.69761658 65.76693726 C-20.5538214 66.53242048 -22.40679973 67.30571453 -24.25952148 68.07958984 C-25.16387939 68.3833252 -26.0682373 68.68706055 -27 69 C-27.66 68.67 -28.32 68.34 -29 68 C-22.93149352 51.11389521 -16.23111111 34.61564671 -8.875 18.25 C-8.49215851 17.39678162 -8.10931702 16.54356323 -7.71487427 15.66448975 C-6.62392051 13.23798399 -5.52830694 10.8136686 -4.4296875 8.390625 C-4.09785965 7.65653412 -3.7660318 6.92244324 -3.42414856 6.16610718 C-1.11904088 1.11904088 -1.11904088 1.11904088 0 0 Z " fill="#D56726" transform="translate(68,38)"/>
<path d="M0 0 C2.04224608 3.01650122 2.25095688 5.53792202 2.25396729 9.12365723 C2.26242676 10.67564568 2.26242676 10.67564568 2.27105713 12.25898743 C2.26700867 13.38846298 2.26296021 14.51793854 2.25878906 15.68164062 C2.2622937 16.87548874 2.26579834 18.06933685 2.26940918 19.29936218 C2.27670255 22.57000552 2.27499407 25.84048695 2.26865101 29.11112785 C2.26358463 32.53522963 2.26828424 35.95932065 2.27142334 39.38342285 C2.27506112 45.13340189 2.27026882 50.88332954 2.26074219 56.63330078 C2.24985797 63.27938216 2.25338368 69.92534083 2.264395 76.57141924 C2.27347323 82.27938146 2.27475053 87.98730676 2.26951766 93.69527388 C2.2664009 97.10361715 2.26598052 100.51190275 2.27259064 103.92024231 C2.27765779 107.71969961 2.26994263 111.51891978 2.25878906 115.31835938 C2.26283752 116.44783493 2.26688599 117.57731049 2.27105713 118.74101257 C2.26541748 119.77567154 2.25977783 120.81033051 2.25396729 121.87634277 C2.25321323 122.77450462 2.25245918 123.67266647 2.25168228 124.59804535 C1.977596 127.21381482 1.45882704 128.81608447 0 131 C-2.875 132 -2.875 132 -6 132 C-8.56270571 130.01392357 -9.8362873 128.79510804 -10.49777794 125.58242798 C-10.4966884 124.67689178 -10.49559887 123.77135559 -10.49447632 122.83837891 C-10.5028653 121.79530579 -10.51125427 120.75223267 -10.51989746 119.67755127 C-10.50865845 118.53872498 -10.49741943 117.39989868 -10.48583984 116.2265625 C-10.49153488 114.42115997 -10.49153488 114.42115997 -10.49734497 112.57928467 C-10.5034848 109.28146358 -10.49174556 105.98464533 -10.47143888 102.68694305 C-10.45385739 99.23482389 -10.45739318 95.78272121 -10.4581604 92.33056641 C-10.45628789 86.53343649 -10.43893121 80.73651608 -10.41162109 74.93945312 C-10.38017075 68.23882842 -10.36962494 61.53843313 -10.3710922 54.83773994 C-10.37244367 47.70198676 -10.35855787 40.56632192 -10.34019899 33.4305954 C-10.33593828 31.37537805 -10.3345169 29.32017498 -10.33372116 27.26495361 C-10.33133704 23.43436591 -10.31190529 19.6039685 -10.29052734 15.7734375 C-10.29143372 14.63461121 -10.29234009 13.49578491 -10.29327393 12.32244873 C-10.28474396 11.27937561 -10.27621399 10.23630249 -10.26742554 9.16162109 C-10.26407385 8.2560849 -10.26072216 7.35054871 -10.25726891 6.41757202 C-9.98045092 3.81629602 -9.40062231 2.19883777 -8 0 C-5.04063954 -1.47968023 -3.13239866 -0.84835797 0 0 Z " fill="#7F1F10" transform="translate(1141,58)"/>
<path d="M0 0 C2.04224608 3.01650122 2.25095688 5.53792202 2.25396729 9.12365723 C2.26242676 10.67564568 2.26242676 10.67564568 2.27105713 12.25898743 C2.26700867 13.38846298 2.26296021 14.51793854 2.25878906 15.68164062 C2.2622937 16.87548874 2.26579834 18.06933685 2.26940918 19.29936218 C2.27670255 22.57000552 2.27499407 25.84048695 2.26865101 29.11112785 C2.26358463 32.53522963 2.26828424 35.95932065 2.27142334 39.38342285 C2.27506112 45.13340189 2.27026882 50.88332954 2.26074219 56.63330078 C2.24985797 63.27938216 2.25338368 69.92534083 2.264395 76.57141924 C2.27347323 82.27938146 2.27475053 87.98730676 2.26951766 93.69527388 C2.2664009 97.10361715 2.26598052 100.51190275 2.27259064 103.92024231 C2.27765779 107.71969961 2.26994263 111.51891978 2.25878906 115.31835938 C2.26283752 116.44783493 2.26688599 117.57731049 2.27105713 118.74101257 C2.26541748 119.77567154 2.25977783 120.81033051 2.25396729 121.87634277 C2.25321323 122.77450462 2.25245918 123.67266647 2.25168228 124.59804535 C1.977596 127.21381482 1.45882704 128.81608447 0 131 C-2.875 132 -2.875 132 -6 132 C-8.56270571 130.01392357 -9.8362873 128.79510804 -10.49777794 125.58242798 C-10.4966884 124.67689178 -10.49559887 123.77135559 -10.49447632 122.83837891 C-10.5028653 121.79530579 -10.51125427 120.75223267 -10.51989746 119.67755127 C-10.50865845 118.53872498 -10.49741943 117.39989868 -10.48583984 116.2265625 C-10.49153488 114.42115997 -10.49153488 114.42115997 -10.49734497 112.57928467 C-10.5034848 109.28146358 -10.49174556 105.98464533 -10.47143888 102.68694305 C-10.45385739 99.23482389 -10.45739318 95.78272121 -10.4581604 92.33056641 C-10.45628789 86.53343649 -10.43893121 80.73651608 -10.41162109 74.93945312 C-10.38017075 68.23882842 -10.36962494 61.53843313 -10.3710922 54.83773994 C-10.37244367 47.70198676 -10.35855787 40.56632192 -10.34019899 33.4305954 C-10.33593828 31.37537805 -10.3345169 29.32017498 -10.33372116 27.26495361 C-10.33133704 23.43436591 -10.31190529 19.6039685 -10.29052734 15.7734375 C-10.29143372 14.63461121 -10.29234009 13.49578491 -10.29327393 12.32244873 C-10.28474396 11.27937561 -10.27621399 10.23630249 -10.26742554 9.16162109 C-10.26407385 8.2560849 -10.26072216 7.35054871 -10.25726891 6.41757202 C-9.98045092 3.81629602 -9.40062231 2.19883777 -8 0 C-5.04063954 -1.47968023 -3.13239866 -0.84835797 0 0 Z " fill="#7F1F10" transform="translate(1069,58)"/>
<path d="M0 0 C1 2 1 2 0.39894104 3.83499146 C0.05918747 4.57667572 -0.2805661 5.31835999 -0.63061523 6.08251953 C-1.01108505 6.92324005 -1.39155487 7.76396057 -1.78355408 8.63015747 C-2.20431717 9.53853363 -2.62508026 10.44690979 -3.05859375 11.3828125 C-3.48173355 12.31221649 -3.90487335 13.24162048 -4.34083557 14.19918823 C-5.69903462 17.1778834 -7.06812385 20.15142905 -8.4375 23.125 C-9.35814145 25.13899414 -10.27807281 27.15331304 -11.19726562 29.16796875 C-13.45660614 34.11578228 -15.72491649 39.05940724 -18 44 C-20.51114414 43.51088051 -22.97317628 43.00752268 -25.4375 42.31640625 C-28.77205635 41.90466987 -30.87305052 42.75292858 -34 43.9375 C-39.50876991 46.01031521 -42.74245768 46.8760217 -48.33203125 44.70703125 C-57.45356719 39.74188542 -57.45356719 39.74188542 -59.01953125 34.75 C-59.17609283 29.64725207 -58.98082954 26.4263059 -56.0390625 22.1484375 C-51.78997077 19.14458088 -48.33761251 19.29368486 -43.25 19.3125 C-32.67234441 19.20895367 -24.93496748 18.50629982 -16.5 11.75 C-15.20813807 10.75767201 -13.91517211 9.76677959 -12.62109375 8.77734375 C-12.00476074 8.30022949 -11.38842773 7.82311523 -10.75341797 7.33154297 C-7.29407583 4.70452375 -3.65306678 2.34627866 0 0 Z " fill="#98391F" transform="translate(65,32)"/>
<path d="M0 0 C6.88015556 0.17271739 11.68131883 0.69497782 16.53857422 5.78881836 C18.30416824 7.7671997 19.9760555 9.80390228 21.66357422 11.85131836 C23.43800828 13.37594095 25.25087611 14.85708611 27.10107422 16.28881836 C31.49630965 19.82942468 35.7000762 23.53081561 39.85107422 27.35131836 C40.71720337 28.14493774 40.71720337 28.14493774 41.60083008 28.95458984 C42.97612867 30.2311898 44.32292516 31.53837747 45.66357422 32.85131836 C45.66357422 33.18131836 45.66357422 33.51131836 45.66357422 33.85131836 C37.38224435 33.17618823 29.42301254 31.33965654 21.34716797 29.47241211 C19.88039454 29.13710106 18.41351956 28.8022339 16.94654846 28.4677887 C13.11351074 27.5926804 9.28186909 26.71160671 5.45050049 25.82922363 C1.52952231 24.92733652 -2.39276505 24.03118074 -6.31494141 23.13452148 C-13.99005199 21.37901583 -21.6636952 19.61719702 -29.33642578 17.85131836 C-29.33642578 13.85131836 -29.33642578 13.85131836 -26.78173828 11.12475586 C-25.68486059 10.14739268 -24.57760273 9.18158192 -23.46142578 8.22631836 C-22.35979434 7.25504238 -21.25822919 6.28369121 -20.15673828 5.31225586 C-19.22603516 4.50014648 -18.29533203 3.68803711 -17.33642578 2.85131836 C-13.22831522 -1.2567922 -5.5225232 0.06193266 0 0 Z " fill="#B65226" transform="translate(102.33642578125,16.148681640625)"/>
<path d="M0 0 C0.66 0 1.32 0 2 0 C0.48400847 6.50767097 -1.26184087 12.85741889 -3.3828125 19.1953125 C-6.4077154 28.58877888 -8.04690366 38.16199812 -9.6875 47.875 C-10.12723011 50.45844451 -10.57016643 53.04114649 -11.02290344 55.62234497 C-11.3012145 57.21024906 -11.57205731 58.79948536 -11.83439636 60.3901062 C-12.77511496 65.77511496 -12.77511496 65.77511496 -15 68 C-17.10469946 63.00334417 -19.20412811 58.00451818 -21.29882812 53.00366211 C-22.01127105 51.30482192 -22.72511859 49.60657006 -23.44042969 47.90893555 C-24.4718546 45.46037877 -25.49811074 43.00970932 -26.5234375 40.55859375 C-26.84122162 39.80726669 -27.15900574 39.05593964 -27.48641968 38.28184509 C-29.30994403 33.90639614 -30.78985422 29.58428589 -32 25 C-22.459052 17.56762889 -12.91304059 10.14318837 -3.30859375 2.79296875 C-1.15833336 1.19991086 -1.15833336 1.19991086 0 0 Z " fill="#F37B22" transform="translate(168,129)"/>
<path d="M0 0 C-3.54112224 3.63259034 -7.23225657 6.99481564 -11.125 10.25 C-11.69049561 10.72526123 -12.25599121 11.20052246 -12.83862305 11.69018555 C-18.18643443 16.17527761 -23.5604764 20.62638615 -29 25 C-29.77730469 25.63550781 -30.55460937 26.27101562 -31.35546875 26.92578125 C-32.06316406 27.48652344 -32.77085938 28.04726562 -33.5 28.625 C-34.41265625 29.35589844 -34.41265625 29.35589844 -35.34375 30.1015625 C-35.8903125 30.39804688 -36.436875 30.69453125 -37 31 C-40.91342298 29.69552567 -41.21639593 28.30794137 -43.13671875 24.72265625 C-43.71357422 23.65208984 -44.29042969 22.58152344 -44.88476562 21.47851562 C-45.47966797 20.35123047 -46.07457031 19.22394531 -46.6875 18.0625 C-47.59725586 16.37737305 -47.59725586 16.37737305 -48.52539062 14.65820312 C-53 6.28781461 -53 6.28781461 -53 4 C-49.78545122 2.39272561 -46.23500411 2.51190823 -42.6953125 2.24609375 C-41.86095673 2.18092056 -41.02660095 2.11574738 -40.16696167 2.04859924 C-38.3933691 1.91125453 -36.61960913 1.77605761 -34.84570312 1.64282227 C-32.17002576 1.44089794 -29.49519379 1.22975632 -26.8203125 1.01757812 C-17.86699039 0.32424963 -8.9880997 -0.23689033 0 0 Z " fill="#FAA63D" transform="translate(67,142)"/>
<path d="M0 0 C6.92338952 -0.05063836 13.84673141 -0.08570749 20.77026367 -0.10986328 C23.12640162 -0.11993155 25.48252704 -0.13358706 27.83862305 -0.15087891 C31.22187386 -0.17509076 34.60495972 -0.18647478 37.98828125 -0.1953125 C39.57277824 -0.21079636 39.57277824 -0.21079636 41.18928528 -0.22659302 C42.17007553 -0.22674408 43.15086578 -0.22689514 44.16137695 -0.22705078 C45.45710381 -0.23371262 45.45710381 -0.23371262 46.77900696 -0.24050903 C49 0 49 0 52 2 C45.811209 4.61475085 39.62222197 7.22903728 33.43310547 9.84301758 C31.33247553 10.73028319 29.23188868 11.61765084 27.13134766 12.50512695 C26.11476074 12.93462646 25.09817383 13.36412598 24.05078125 13.80664062 C23.04712524 14.23075226 22.04346924 14.65486389 21.00939941 15.09182739 C19.02485378 15.92948367 17.03975189 16.76582337 15.05407715 17.60079956 C11.01696037 19.29862944 6.98246793 20.99820233 2.97460938 22.76416016 C1.37069336 23.4629126 1.37069336 23.4629126 -0.265625 24.17578125 C-1.13477539 24.56290283 -2.00392578 24.95002441 -2.89941406 25.34887695 C-5 26 -5 26 -8 25 C-6.85707074 21.20745172 -5.7101664 17.4161172 -4.5625 13.625 C-4.23701172 12.54476562 -3.91152344 11.46453125 -3.57617188 10.3515625 C-3.10727539 8.8046875 -3.10727539 8.8046875 -2.62890625 7.2265625 C-2.34088135 6.27346191 -2.05285645 5.32036133 -1.75610352 4.33837891 C-1 2 -1 2 0 0 Z " fill="#B65226" transform="translate(174,126)"/>
<path d="M0 0 C0.99 0.33 1.98 0.66 3 1 C3.98976452 3.45328829 4.77778543 5.78008955 5.5 8.3125 C5.69980469 8.97056641 5.89960937 9.62863281 6.10546875 10.30664062 C7.94708365 16.48250205 9.4666061 22.74193495 11 29 C7.08400465 29.79501066 3.16708409 30.58537263 -0.75 31.375 C-1.84183594 31.59671875 -2.93367188 31.8184375 -4.05859375 32.046875 C-11.35075812 33.51393765 -18.65502868 34.82566831 -26 36 C-24.36297935 31.6229197 -22.12501266 28.34507194 -19.1875 24.75 C-18.20456051 23.52437384 -17.22284704 22.29776368 -16.2421875 21.0703125 C-15.46053223 20.09433105 -15.46053223 20.09433105 -14.66308594 19.09863281 C-11.66281681 15.31262086 -8.74022275 11.46720675 -5.8125 7.625 C-5.23588623 6.86928711 -4.65927246 6.11357422 -4.06518555 5.33496094 C-2.70928162 3.5572797 -1.35419498 1.77898319 0 0 Z " fill="#B65226" transform="translate(112,114)"/>
<path d="M0 0 C6.35331616 2.00887064 12.32181488 4.75438824 18.3605957 7.5402832 C20.32006053 8.44097529 22.28581015 9.32688995 24.25195312 10.21289062 C25.49780989 10.7855584 26.74326755 11.35909542 27.98828125 11.93359375 C29.68271362 12.7078772 29.68271362 12.7078772 31.41137695 13.49780273 C34 15 34 15 35 18 C33.9378125 18.72445312 32.875625 19.44890625 31.78125 20.1953125 C30.3539373 21.17153973 28.92686948 22.14812506 27.5 23.125 C26.76692627 23.62620361 26.03385254 24.12740723 25.27856445 24.64379883 C21.50440362 27.23583393 17.79639568 29.86698831 14.1875 32.6875 C11 35 11 35 8 35 C6.85615511 30.49877262 5.7169503 25.99640612 4.58203125 21.49291992 C4.19528503 19.96102204 3.80727236 18.42944332 3.41796875 16.89819336 C2.85864406 14.69727922 2.30388248 12.49525789 1.75 10.29296875 C1.57500977 9.60849167 1.40001953 8.92401459 1.21972656 8.21879578 C0.51258894 5.39124571 0 2.92845999 0 0 Z " fill="#FDC24F" transform="translate(30,15)"/>
<path d="M0 0 C0 4.67474001 -3.42063631 7.30572952 -6.40209961 10.65087891 C-8.93584062 13.5175986 -11.28007232 16.31866206 -13.32421875 19.55859375 C-18.45698614 27.39947472 -18.45698614 27.39947472 -22.88574219 28.4453125 C-27.48903935 28.77458364 -31.95700515 28.12183796 -36.49462891 27.38623047 C-39.99735621 26.84624659 -43.512214 26.52495305 -47.03930664 26.18798828 C-50.69786997 25.83356604 -54.3480934 25.41701373 -58 25 C-56.54458722 22.08917444 -54.65228488 21.86091395 -51.65405273 20.66162109 C-50.5129454 20.20129486 -49.37183807 19.74096863 -48.19615173 19.26669312 C-46.9420238 18.76879498 -45.68783638 18.27104666 -44.43359375 17.7734375 C-43.15682873 17.26122851 -41.88030666 16.74841355 -40.60401917 16.23501587 C-37.24118679 14.88418451 -33.87510856 13.5416313 -30.50830078 12.20074463 C-27.07450871 10.83149879 -23.64383291 9.45449225 -20.21289062 8.078125 C-13.47829537 5.37778844 -6.74025412 2.68618495 0 0 Z " fill="#F78F2F" transform="translate(91,89)"/>
<path d="M0 0 C2.10639493 3.6554558 2.98996239 7.54129312 3.9453125 11.609375 C4.12005096 12.33618469 4.29478943 13.06299438 4.474823 13.81182861 C5.0294767 16.12348131 5.57732475 18.43668514 6.125 20.75 C6.50085358 22.3217219 6.87715071 23.89333781 7.25390625 25.46484375 C8.17441395 29.3086868 9.08882323 33.15393487 10 37 C5.87324551 37.64292833 1.89945771 38.12359912 -2.27734375 38.09765625 C-3.20224609 38.09443359 -4.12714844 38.09121094 -5.08007812 38.08789062 C-6.49450195 38.07532227 -6.49450195 38.07532227 -7.9375 38.0625 C-8.90751953 38.05798828 -9.87753906 38.05347656 -10.87695312 38.04882812 C-13.2513676 38.0371315 -15.62565021 38.02074086 -18 38 C-17.50296213 34.34891936 -17.011511 32.45874319 -14.0625 30.1875 C-11 28 -11 28 -9 28 C-9.30035156 27.39671875 -9.60070313 26.7934375 -9.91015625 26.171875 C-10.29042969 25.37265625 -10.67070312 24.5734375 -11.0625 23.75 C-11.44535156 22.96109375 -11.82820313 22.1721875 -12.22265625 21.359375 C-13.12757566 18.61278543 -12.92910408 17.69137214 -12 15 C-10.78491211 13.16894531 -10.78491211 13.16894531 -9.27734375 11.328125 C-8.73916016 10.66425781 -8.20097656 10.00039063 -7.64648438 9.31640625 C-7.08251953 8.63449219 -6.51855469 7.95257812 -5.9375 7.25 C-5.36966797 6.55261719 -4.80183594 5.85523438 -4.21679688 5.13671875 C-2.81712814 3.41947812 -1.41144064 1.70756705 0 0 Z " fill="#F68F2F" transform="translate(29,14)"/>
<path d="M0 0 C-0.33 6.93 -0.66 13.86 -1 21 C-11.48064866 20.48455826 -21.6378934 19.69143737 -32 18 C-32.13592021 16.10617836 -32.2324094 14.20950296 -32.3125 12.3125 C-32.37050781 11.25675781 -32.42851563 10.20101562 -32.48828125 9.11328125 C-32 6 -32 6 -30.09765625 3.15625 C-25.786831 0.15552422 -22.26687119 0.22137763 -17.125 0.1875 C-16.25230469 0.16236328 -15.37960938 0.13722656 -14.48046875 0.11132812 C-9.65249397 -0.01572384 -4.83037994 0 0 0 Z " fill="#D36627" transform="translate(39,51)"/>
<path d="M0 0 C0 5.28 0 10.56 0 16 C-16.17 16 -32.34 16 -49 16 C-49 13.69 -49 11.38 -49 9 C-42.66563889 7.71284789 -36.33008046 6.43172261 -29.99365234 5.15478516 C-27.83809805 4.71965068 -25.68282192 4.28313596 -23.52783203 3.84521484 C-20.43073415 3.21609455 -17.33267078 2.59194044 -14.234375 1.96875 C-13.27070007 1.77188599 -12.30702515 1.57502197 -11.31414795 1.37219238 C-10.41351624 1.19200562 -9.51288452 1.01181885 -8.58496094 0.82617188 C-7.79442322 0.66628784 -7.0038855 0.50640381 -6.18939209 0.3416748 C-4 0 -4 0 0 0 Z " fill="#FCE16A" transform="translate(232,184)"/>
<path d="M0 0 C18.315 1.485 18.315 1.485 37 3 C37 3.66 37 4.32 37 5 C30.52403971 7.83436766 24.04596974 10.66386954 17.56640625 13.48999023 C15.36214033 14.4520848 13.15836074 15.41529439 10.95507812 16.37963867 C7.78903195 17.76514041 4.62126155 19.14662986 1.453125 20.52734375 C0.46757629 20.95965805 -0.51797241 21.39197235 -1.53338623 21.83738708 C-2.4540387 22.23772659 -3.37469116 22.6380661 -4.32324219 23.05053711 C-5.1315448 23.40361435 -5.93984741 23.75669159 -6.77264404 24.12046814 C-8.83755158 24.93585284 -10.83527954 25.52063809 -13 26 C-11.36042008 20.05405355 -8.37523734 14.96387497 -5.375 9.625 C-3.60125 6.44875 -1.8275 3.2725 0 0 Z " fill="#FAA63D" transform="translate(25,116)"/>
<path d="M0 0 C3.77207623 3.35390488 6.0026961 7.05687384 8.375 11.4375 C8.75527344 12.09298828 9.13554688 12.74847656 9.52734375 13.42382812 C12.1925722 18.32647161 12.1925722 18.32647161 11.30615234 21.42675781 C9.92834981 24.14115756 8.37912192 26.39460969 6.515625 28.80078125 C5.82726562 29.69603516 5.13890625 30.59128906 4.4296875 31.51367188 C3.71039063 32.43728516 2.99109375 33.36089844 2.25 34.3125 C0.83831097 36.14174907 -0.57315074 37.97117359 -1.984375 39.80078125 C-2.66177734 40.67557129 -3.33917969 41.55036133 -4.03710938 42.45166016 C-6.72577324 45.94224143 -9.3700078 49.4650845 -12 53 C-13.08401198 49.70607841 -12.89184043 47.59921718 -12.02783203 44.26318359 C-11.67218674 42.86185684 -11.67218674 42.86185684 -11.30935669 41.43222046 C-11.04484711 40.43107208 -10.78033752 39.42992371 -10.5078125 38.3984375 C-10.24241669 37.36562653 -9.97702087 36.33281555 -9.70358276 35.26870728 C-9.14126136 33.08717892 -8.57442431 30.90681029 -8.00341797 28.72753906 C-7.12714456 25.38318485 -6.26351079 22.03577254 -5.40234375 18.6875 C-4.85489657 16.57012365 -4.30674351 14.45292965 -3.7578125 12.3359375 C-3.49735138 11.33074066 -3.23689026 10.32554382 -2.96853638 9.28988647 C-2.72513519 8.36197296 -2.48173401 7.43405945 -2.23095703 6.47802734 C-1.90999557 5.25036148 -1.90999557 5.25036148 -1.58255005 3.99789429 C-1 2 -1 2 0 0 Z " fill="#7B1D16" transform="translate(99,90)"/>
<path d="M0 0 C-14.15957468 8.13467354 -28.44917642 15.97994385 -42.88134766 23.6171875 C-43.80645897 24.10707405 -43.80645897 24.10707405 -44.7502594 24.6068573 C-46.49681545 25.53162746 -48.24364173 26.45588719 -49.99047852 27.38012695 C-52.43020823 28.69330994 -54.82911164 30.04561434 -57.21484375 31.453125 C-60 33 -60 33 -62.5625 33.1875 C-66.33478063 31.34972226 -68.46847614 28.26564583 -71 25 C-62.62491478 21.4515012 -54.18999928 18.10284131 -45.68359375 14.8828125 C-43.85526756 14.19069168 -43.85526756 14.19069168 -41.99000549 13.48458862 C-39.43859261 12.5198272 -36.88635749 11.55727288 -34.33374023 10.59570312 C-31.06250729 9.36268175 -27.79546088 8.11892069 -24.52912807 6.87298775 C-21.39611051 5.68079714 -18.25828381 4.50147886 -15.12109375 3.3203125 C-13.94929062 2.87148712 -12.77748749 2.42266174 -11.57017517 1.9602356 C-10.48797195 1.55586273 -9.40576874 1.15148987 -8.29077148 0.73486328 C-7.33879379 0.37466095 -6.3868161 0.01445862 -5.4059906 -0.35665894 C-3 -1 -3 -1 0 0 Z " fill="#7B1D16" transform="translate(187,86)"/>
<path d="M0 0 C1.86523438 1.05981445 1.86523438 1.05981445 3.59375 2.36328125 C4.23183594 2.83830078 4.86992187 3.31332031 5.52734375 3.80273438 C6.17832031 4.30095703 6.82929688 4.79917969 7.5 5.3125 C8.47646484 6.04243164 8.47646484 6.04243164 9.47265625 6.78710938 C13.03749416 9.46253823 16.51759412 12.2140753 20 15 C1.52 15 -16.96 15 -36 15 C-31.10430399 11.32822799 -25.92915382 8.8307449 -20.43725586 6.16455078 C-18.56546431 5.25144606 -16.70390882 4.31937089 -14.84179688 3.38671875 C-13.65779297 2.81050781 -12.47378906 2.23429688 -11.25390625 1.640625 C-10.17439697 1.10985352 -9.0948877 0.57908203 -7.98266602 0.03222656 C-4.6861451 -1.10861738 -3.25837794 -1.13475679 0 0 Z " fill="#FCE16A" transform="translate(130,185)"/>
<path d="M0 0 C-0.99 4.29 -1.98 8.58 -3 13 C-2.01 13 -1.02 13 0 13 C0.66 12.01 1.32 11.02 2 10 C3.32 10.66 4.64 11.32 6 12 C6 15 6 15 2 23 C-5.92 23 -13.84 23 -22 23 C-27 14 -27 14 -27 12 C-23.0673934 9.99026832 -19.12815258 7.99390285 -15.1875 6 C-14.06794922 5.42765625 -12.94839844 4.8553125 -11.79492188 4.265625 C-10.72177734 3.72421875 -9.64863281 3.1828125 -8.54296875 2.625 C-7.55321045 2.12226563 -6.56345215 1.61953125 -5.54370117 1.1015625 C-3 0 -3 0 0 0 Z " fill="#FCE06A" transform="translate(27,177)"/>
<path d="M0 0 C-0.66 5.94 -1.32 11.88 -2 18 C-6.18744018 19.04686005 -10.24300857 19.42802895 -14.52734375 19.75390625 C-15.76624107 19.85166603 -15.76624107 19.85166603 -17.03016663 19.95140076 C-18.77413499 20.08828089 -20.51823425 20.22350216 -22.26245117 20.35717773 C-24.92465181 20.56151384 -27.58635729 20.77154382 -30.24804688 20.98242188 C-31.94528613 21.11492152 -33.64255098 21.24709384 -35.33984375 21.37890625 C-36.13269272 21.44139053 -36.92554169 21.50387482 -37.74241638 21.56825256 C-41.50547418 21.85436856 -45.22246479 22.07486328 -49 22 C-49 21.34 -49 20.68 -49 20 C-48.48270325 19.77893585 -47.96540649 19.5578717 -47.43243408 19.33010864 C-42.04612598 17.0280143 -36.66054829 14.72421776 -31.27539062 12.41943359 C-29.2658118 11.55962187 -27.25604745 10.70024362 -25.24609375 9.84130859 C-22.35628094 8.60628484 -19.46713996 7.36970127 -16.578125 6.1328125 C-15.68007141 5.74940704 -14.78201782 5.36600159 -13.85675049 4.97097778 C-13.01618103 4.61075531 -12.17561157 4.25053284 -11.30957031 3.87939453 C-10.57232727 3.56406769 -9.83508423 3.24874084 -9.07550049 2.92385864 C-6.97384871 2.01893158 -6.97384871 2.01893158 -4.91815186 0.88253784 C-3 0 -3 0 0 0 Z " fill="#F78F2F" transform="translate(72,120)"/>
<path d="M0 0 C0.66 0 1.32 0 2 0 C4.1803129 3.90921895 6.34183744 7.82851544 8.5 11.75 C9.12003906 12.86117187 9.74007813 13.97234375 10.37890625 15.1171875 C10.96542969 16.18710938 11.55195313 17.25703125 12.15625 18.359375 C12.97319336 19.83615723 12.97319336 19.83615723 13.80664062 21.34277344 C15 24 15 24 15 28 C7.41 31.63 -0.18 35.26 -8 39 C-9.15283203 34.38867186 -8.33311735 31.39346773 -7.12890625 26.953125 C-6.9277269 26.18192322 -6.72654755 25.41072144 -6.51927185 24.6161499 C-5.87592213 22.15832265 -5.21941211 19.70423326 -4.5625 17.25 C-4.12347645 15.58226069 -3.68531511 13.91429415 -3.24804688 12.24609375 C-2.17534437 8.16136037 -1.09082747 4.07992877 0 0 Z " fill="#FEC450" transform="translate(9,147)"/>
<path d="M0 0 C5.17006071 0.22738693 10.33348095 0.50487368 15.49755859 0.84228516 C17.11181644 0.94402277 18.72676191 1.0356033 20.34228516 1.11474609 C32.34079539 1.7346822 32.34079539 1.7346822 35.859375 4.41796875 C37.25517067 6.54338488 38.08380652 8.62494458 39 11 C39.59657856 12.19657003 40.20714619 13.38622165 40.828125 14.5703125 C46 24.46344873 46 24.46344873 46 27 C41.42621639 25.33275334 37.29619803 23.0605758 33.0625 20.6875 C32.29558838 20.25888672 31.52867676 19.83027344 30.73852539 19.38867188 C24.1006531 15.65722567 17.50893481 11.84707333 10.9375 8 C9.96756104 7.43627686 8.99762207 6.87255371 7.99829102 6.29174805 C6.65142212 5.49764526 6.65142212 5.49764526 5.27734375 4.6875 C4.47546631 4.21699219 3.67358887 3.74648437 2.84741211 3.26171875 C1 2 1 2 0 0 Z " fill="#F47B22" transform="translate(184,152)"/>
<path d="M0 0 C-1.59242368 5.11251813 -3.36980345 9.95906641 -5.61328125 14.82421875 C-6.06098877 15.79834717 -6.50869629 16.77247559 -6.9699707 17.77612305 C-7.30988037 18.51000244 -7.64979004 19.24388184 -8 20 C-12.39734028 19.7640285 -16.79374007 19.51557848 -21.18969727 19.25537109 C-22.68624509 19.1685723 -24.18299741 19.08522932 -25.67993164 19.00537109 C-27.82761369 18.89020244 -29.97426143 18.76275562 -32.12109375 18.6328125 C-34.06133423 18.52283936 -34.06133423 18.52283936 -36.04077148 18.41064453 C-37.01731689 18.27513184 -37.9938623 18.13961914 -39 18 C-39.33 17.34 -39.66 16.68 -40 16 C-34.62675395 13.71680688 -29.25156925 11.43826486 -23.87451172 9.1640625 C-22.04453992 8.38930619 -20.21511012 7.61326841 -18.38623047 6.8359375 C-15.76149748 5.72060381 -13.13486722 4.60985202 -10.5078125 3.5 C-9.68693146 3.15001953 -8.86605042 2.80003906 -8.02029419 2.43945312 C-2.22774341 0 -2.22774341 0 0 0 Z " fill="#7B1D16" transform="translate(224,132)"/>
<path d="M0 0 C0.66 0.33 1.32 0.66 2 1 C-9.46735999 10.02383614 -21.04066534 18.88246861 -32.87792969 27.41748047 C-34.30716091 28.48331995 -35.70418578 29.59358503 -37.06738281 30.74267578 C-40.52857889 33.60858632 -42.25742047 34.92906252 -46.84375 35.3671875 C-48.0503125 35.20476562 -49.256875 35.04234375 -50.5 34.875 C-51.7271875 34.72804687 -52.954375 34.58109375 -54.21875 34.4296875 C-55.1365625 34.28789063 -56.054375 34.14609375 -57 34 C-57 33.01 -57 32.02 -57 31 C-56.21165771 30.58339111 -55.42331543 30.16678223 -54.61108398 29.73754883 C-38.30223048 21.10804374 -22.0859372 12.36668157 -6.08935547 3.16650391 C-5.39986816 2.78155762 -4.71038086 2.39661133 -4 2 C-3.29117676 1.5982959 -2.58235352 1.1965918 -1.85205078 0.78271484 C-0.93528564 0.395271 -0.93528564 0.395271 0 0 Z " fill="#96381F" transform="translate(188,88)"/>
<path d="M0 0 C0.66 0 1.32 0 2 0 C-1.6777125 17.82276058 -6.41304502 35.3951376 -11 53 C-14.31608757 48.02586865 -13.67392302 42.09865708 -13.88134766 36.265625 C-13.99759203 34.04597926 -14.22601767 31.86382557 -14.48046875 29.65625 C-15.17664627 22.00177822 -14.80375244 17.08492276 -9.8034668 10.97900391 C-7.29898675 8.21260079 -4.66812961 5.60900208 -2 3 C-1.34 2.01 -0.68 1.02 0 0 Z " fill="#B65226" transform="translate(93,93)"/>
<path d="M0 0 C3.35538925 2.70281261 4.61383177 6.33801781 6.171875 10.22265625 C6.45855042 10.9239415 6.74522583 11.62522675 7.04058838 12.34776306 C7.64264064 13.82642456 8.24084824 15.30665655 8.83544922 16.78833008 C9.74992079 19.06230304 10.68071138 21.32910162 11.61328125 23.59570312 C12.19630291 25.03345294 12.77836771 26.47159123 13.359375 27.91015625 C13.63948425 28.59038345 13.91959351 29.27061066 14.20819092 29.97145081 C14.86527434 31.62510196 15.44059488 33.31080295 16 35 C15.67 35.66 15.34 36.32 15 37 C11.84921673 34.88226772 8.70525925 32.75461813 5.5625 30.625 C4.66466797 30.02171875 3.76683594 29.4184375 2.84179688 28.796875 C1.98779297 28.21679688 1.13378906 27.63671875 0.25390625 27.0390625 C-0.53685303 26.50490723 -1.3276123 25.97075195 -2.14233398 25.42041016 C-4 24 -4 24 -5 22 C-4.65454102 19.75341797 -4.65454102 19.75341797 -4.00390625 16.9921875 C-3.77509766 16.00605469 -3.54628906 15.01992187 -3.31054688 14.00390625 C-3.06369141 12.97136719 -2.81683594 11.93882812 -2.5625 10.875 C-2.31951172 9.83472656 -2.07652344 8.79445312 -1.82617188 7.72265625 C-1.22359292 5.1469266 -0.61462141 2.57287788 0 0 Z " fill="#FAA63D" transform="translate(133,158)"/>
<path d="M0 0 C2.4375 1.5 2.4375 1.5 4 4 C4.81870329 8.51552844 4.56423999 11.91665921 2.4375 16 C-0.7985784 18.65524381 -2.83179 19 -7 19 C-12.5862069 16.82758621 -12.5862069 16.82758621 -14 14 C-14.92390453 5.30620985 -14.92390453 5.30620985 -12.1875 1.4375 C-7.89511895 -1.38320755 -4.90485165 -1.11865038 0 0 Z " fill="#801F10" transform="translate(1142,22)"/>
<path d="M0 0 C2.4375 1.5 2.4375 1.5 4 4 C4.81870329 8.51552844 4.56423999 11.91665921 2.4375 16 C-0.7985784 18.65524381 -2.83179 19 -7 19 C-12.5862069 16.82758621 -12.5862069 16.82758621 -14 14 C-14.92390453 5.30620985 -14.92390453 5.30620985 -12.1875 1.4375 C-7.89511895 -1.38320755 -4.90485165 -1.11865038 0 0 Z " fill="#801F10" transform="translate(1070,22)"/>
<path d="M0 0 C7.97055397 3.80264194 15.55352093 8.14901458 23.125 12.6875 C24.28376801 13.37058888 25.4426217 14.05353244 26.6015625 14.73632812 C27.684375 15.38408203 28.7671875 16.03183594 29.8828125 16.69921875 C30.86652832 17.28533936 31.85024414 17.87145996 32.86376953 18.4753418 C33.56872559 18.978479 34.27368164 19.48161621 35 20 C35 20.66 35 21.32 35 22 C32.23010036 22.67076489 29.45920258 23.33676317 26.6875 24 C25.90181641 24.19078125 25.11613281 24.3815625 24.30664062 24.578125 C23.1706543 24.84882813 23.1706543 24.84882813 22.01171875 25.125 C21.31522217 25.29257813 20.61872559 25.46015625 19.90112305 25.6328125 C18 26 18 26 15 26 C14.80664062 25.02675781 14.61328125 24.05351562 14.4140625 23.05078125 C12.95534854 17.94270969 9.67446502 14.25190509 6.375 10.1875 C5.17037947 8.68426573 3.96964141 7.17790918 2.7734375 5.66796875 C2.24153809 5.01078857 1.70963867 4.3536084 1.16162109 3.67651367 C0 2 0 2 0 0 Z " fill="#FAA63D" transform="translate(190,160)"/>
<path d="M0 0 C2.10639493 3.6554558 2.98996239 7.54129312 3.9453125 11.609375 C4.12005096 12.33618469 4.29478943 13.06299438 4.474823 13.81182861 C5.0294767 16.12348131 5.57732475 18.43668514 6.125 20.75 C6.50085358 22.3217219 6.87715071 23.89333781 7.25390625 25.46484375 C8.17441395 29.3086868 9.08882323 33.15393487 10 37 C5.48349508 35.56067426 1.69690752 33.81814451 -2.375 31.375 C-3.43460938 30.74335937 -4.49421875 30.11171875 -5.5859375 29.4609375 C-6.78089844 28.73777344 -6.78089844 28.73777344 -8 28 C-6.64909235 21.50121609 -4.92169754 15.24896681 -2.875 8.9375 C-2.45927734 7.6390918 -2.45927734 7.6390918 -2.03515625 6.31445312 C-1.36031038 4.2084686 -0.68188659 2.10371313 0 0 Z " fill="#F9A53C" transform="translate(29,14)"/>
<path d="M0 0 C2.81878012 1.28174718 4.85241496 2.61007615 7.015625 4.8203125 C7.54414062 5.35527344 8.07265625 5.89023438 8.6171875 6.44140625 C9.15601562 6.99699219 9.69484375 7.55257813 10.25 8.125 C11.08144531 8.96998047 11.08144531 8.96998047 11.9296875 9.83203125 C13.29104485 11.21686028 14.64614859 12.60783204 16 14 C12.2698595 18.53665737 8.32946434 22.77941122 4.1875 26.9375 C3.44922974 27.68253784 3.44922974 27.68253784 2.69604492 28.44262695 C-0.87624634 32 -0.87624634 32 -2 32 C-1.85888132 28.54145786 -1.71121691 25.08322309 -1.5625 21.625 C-1.52318359 20.65949219 -1.48386719 19.69398437 -1.44335938 18.69921875 C-1.17019178 12.43737688 -0.69676872 6.22902691 0 0 Z " fill="#F47B22" transform="translate(68,0)"/>
<path d="M0 0 C0.66 0.33 1.32 0.66 2 1 C1.22047765 4.79426935 0.42434215 8.58486083 -0.375 12.375 C-0.70757812 13.99535156 -0.70757812 13.99535156 -1.046875 15.6484375 C-1.26601562 16.6796875 -1.48515625 17.7109375 -1.7109375 18.7734375 C-1.90993652 19.72653809 -2.10893555 20.67963867 -2.31396484 21.66162109 C-3 24 -3 24 -5 26 C-5.42410156 25.56429687 -5.84820312 25.12859375 -6.28515625 24.6796875 C-10.35235627 20.54991517 -14.55463788 16.71958871 -19 13 C-17.81978422 9.45935267 -17.18151513 9.23506872 -14.03515625 7.484375 C-13.23529297 7.03835937 -12.43542969 6.59234375 -11.61132812 6.1328125 C-10.77021484 5.67648438 -9.92910156 5.22015625 -9.0625 4.75 C-8.22525391 4.27820313 -7.38800781 3.80640625 -6.52539062 3.3203125 C-1.87644239 0.76208194 -1.87644239 0.76208194 0 0 Z " fill="#F47B22" transform="translate(112,163)"/>
<path d="M0 0 C1.16982422 0.02255859 2.33964844 0.04511719 3.54492188 0.06835938 C6.42708769 0.12717909 9.30663681 0.20932859 12.1875 0.3125 C9.15304088 2.71190235 6.02226854 4.58307629 2.6171875 6.4140625 C1.02583984 7.27257813 1.02583984 7.27257813 -0.59765625 8.1484375 C-1.69980469 8.73882812 -2.80195313 9.32921875 -3.9375 9.9375 C-5.60232422 10.8346875 -5.60232422 10.8346875 -7.30078125 11.75 C-15.29290675 16.05270337 -15.29290675 16.05270337 -17.8125 17.3125 C-17.94842021 15.41867836 -18.0449094 13.52200296 -18.125 11.625 C-18.18300781 10.56925781 -18.24101562 9.51351562 -18.30078125 8.42578125 C-17.8125 5.3125 -17.8125 5.3125 -16.09375 2.4375 C-10.96187404 -0.88600062 -5.9673479 -0.21729838 0 0 Z " fill="#B95426" transform="translate(24.8125,51.6875)"/>
<path d="M0 0 C0 3 0 3 -1.34179688 4.34692383 C-1.96119141 4.79575928 -2.58058594 5.24459473 -3.21875 5.70703125 C-3.90453125 6.21169922 -4.5903125 6.71636719 -5.296875 7.23632812 C-6.02390625 7.75646484 -6.7509375 8.27660156 -7.5 8.8125 C-8.19609375 9.32103516 -8.8921875 9.82957031 -9.609375 10.35351562 C-11.01871477 11.38311662 -12.43150575 12.40800965 -13.84765625 13.42822266 C-16.72663143 15.53063217 -19.54228436 17.71307252 -22.35351562 19.9050293 C-24 21 -24 21 -26 21 C-26.66 17.7 -27.32 14.4 -28 11 C-24.83377004 9.72806983 -21.66703335 8.45742699 -18.5 7.1875 C-17.1696875 6.65286133 -17.1696875 6.65286133 -15.8125 6.10742188 C-10.56490181 4.00452407 -5.30145398 1.96327209 0 0 Z " fill="#7B1D16" transform="translate(160,130)"/>
<path d="M0 0 C-0.53135317 4.51650194 -2.23408575 7.42058156 -5 11 C-8.45516285 12.15172095 -9.82220244 11.79718066 -13.32421875 11.00390625 C-14.35224609 10.77509766 -15.38027344 10.54628906 -16.43945312 10.31054688 C-17.51130859 10.06369141 -18.58316406 9.81683594 -19.6875 9.5625 C-20.77095703 9.31951172 -21.85441406 9.07652344 -22.97070312 8.82617188 C-25.64880847 8.22448301 -28.32504042 7.61549703 -31 7 C-28.39519115 4.39519115 -26.57906027 4.35938619 -22.96875 3.7109375 C-21.76605469 3.49179688 -20.56335938 3.27265625 -19.32421875 3.046875 C-17.43123047 2.71429688 -17.43123047 2.71429688 -15.5 2.375 C-13.60701172 2.03082031 -13.60701172 2.03082031 -11.67578125 1.6796875 C-2.34751674 0 -2.34751674 0 0 0 Z " fill="#F47B22" transform="translate(122,146)"/>
<path d="M0 0 C8.20037776 1.10815916 16.07193875 2.61681525 24 5 C20.32043588 8.12038083 16.56596709 10.48019088 12.3125 12.75 C11.17425781 13.36359375 10.03601563 13.9771875 8.86328125 14.609375 C6 16 6 16 4 16 C4 11.71 4 7.42 4 3 C2.68 2.34 1.36 1.68 0 1 C0 0.67 0 0.34 0 0 Z " fill="#FAA63D" transform="translate(87,155)"/>
<path d="M0 0 C-3.60759039 4.10748575 -8.4381309 5.36725172 -13.4375 7.25 C-14.39205078 7.62640625 -15.34660156 8.0028125 -16.33007812 8.390625 C-17.25111328 8.74125 -18.17214844 9.091875 -19.12109375 9.453125 C-19.9608374 9.77442383 -20.80058105 10.09572266 -21.66577148 10.42675781 C-24.20599115 11.05058751 -25.56091737 10.85857957 -28 10 C-20.87996389 -1.9736343 -12.54463851 -1.14854269 0 0 Z " fill="#B65225" transform="translate(163,125)"/>
<path d="M0 0 C3.03369269 4.55053903 3.94423187 9.43466587 4.0625 14.875 C2.35653039 18.28693922 -0.54019434 18.80479441 -4 20 C-3.42978625 13.04339229 -1.98697306 6.68572695 0 0 Z " fill="#FAA63D" transform="translate(116,168)"/>
<path d="M0 0 C1 2 1 2 0.22265625 4.8203125 C-0.16019531 5.91085938 -0.54304687 7.00140625 -0.9375 8.125 C-1.31777344 9.22070312 -1.69804687 10.31640625 -2.08984375 11.4453125 C-2.39019531 12.28835937 -2.69054687 13.13140625 -3 14 C-3.33 14 -3.66 14 -4 14 C-4.63019694 4.82713348 -4.63019694 4.82713348 -2 1.375 C-1.34 0.92125 -0.68 0.4675 0 0 Z " fill="#D26527" transform="translate(11,53)"/>
</svg>
